<mxfile host="app.diagrams.net" modified="2021-02-11T11:19:18.805Z" agent="5.0 (Windows NT 10.0; Win64; x64) AppleWebKit/537.36 (KHTML, like Gecko) Chrome/88.0.4324.150 Safari/537.36" etag="UKTx0DigI3Vjjc9kTEOM" version="14.1.3" type="github">
  <diagram id="i1aspWeuF-IFRptB1cZZ" name="Page-1">
    <mxGraphModel dx="1422" dy="775" grid="1" gridSize="10" guides="1" tooltips="1" connect="1" arrows="1" fold="1" page="1" pageScale="1" pageWidth="827" pageHeight="1169" math="0" shadow="0">
      <root>
        <mxCell id="0" />
        <mxCell id="1" parent="0" />
        <mxCell id="An_e_5d8Y1u03Q7oT-8Q-1" value="User" style="ellipse;whiteSpace=wrap;html=1;" parent="1" vertex="1">
          <mxGeometry x="350" y="140" width="130" height="70" as="geometry" />
        </mxCell>
        <mxCell id="168WRq8Tqpi3jC3P_OvF-2" value="" style="endArrow=classic;html=1;" parent="1" edge="1">
          <mxGeometry width="50" height="50" relative="1" as="geometry">
            <mxPoint x="413" y="210" as="sourcePoint" />
            <mxPoint x="413" y="270" as="targetPoint" />
          </mxGeometry>
        </mxCell>
        <mxCell id="168WRq8Tqpi3jC3P_OvF-4" value="Pin" style="text;html=1;strokeColor=none;fillColor=none;align=center;verticalAlign=middle;whiteSpace=wrap;rounded=0;" parent="1" vertex="1">
          <mxGeometry x="430" y="230" width="40" height="20" as="geometry" />
        </mxCell>
        <mxCell id="168WRq8Tqpi3jC3P_OvF-6" value="" style="endArrow=classic;html=1;" parent="1" target="168WRq8Tqpi3jC3P_OvF-7" edge="1">
          <mxGeometry width="50" height="50" relative="1" as="geometry">
            <mxPoint x="409.5" y="350" as="sourcePoint" />
            <mxPoint x="410" y="400" as="targetPoint" />
          </mxGeometry>
        </mxCell>
        <mxCell id="168WRq8Tqpi3jC3P_OvF-7" value="Sendemast" style="ellipse;whiteSpace=wrap;html=1;" parent="1" vertex="1">
          <mxGeometry x="349" y="400" width="120" height="70" as="geometry" />
        </mxCell>
        <mxCell id="168WRq8Tqpi3jC3P_OvF-9" value="" style="endArrow=classic;html=1;" parent="1" edge="1">
          <mxGeometry width="50" height="50" relative="1" as="geometry">
            <mxPoint x="409.5" y="470" as="sourcePoint" />
            <mxPoint x="409.5" y="530" as="targetPoint" />
          </mxGeometry>
        </mxCell>
        <mxCell id="168WRq8Tqpi3jC3P_OvF-10" value="Mobilfunknetz" style="ellipse;whiteSpace=wrap;html=1;" parent="1" vertex="1">
          <mxGeometry x="349" y="530" width="120" height="70" as="geometry" />
        </mxCell>
        <mxCell id="168WRq8Tqpi3jC3P_OvF-11" value="" style="shape=link;html=1;" parent="1" edge="1">
          <mxGeometry width="100" relative="1" as="geometry">
            <mxPoint x="359" y="270" as="sourcePoint" />
            <mxPoint x="459" y="270" as="targetPoint" />
          </mxGeometry>
        </mxCell>
        <mxCell id="168WRq8Tqpi3jC3P_OvF-12" value="" style="shape=link;html=1;" parent="1" edge="1">
          <mxGeometry width="100" relative="1" as="geometry">
            <mxPoint x="359" y="340" as="sourcePoint" />
            <mxPoint x="459" y="340" as="targetPoint" />
          </mxGeometry>
        </mxCell>
        <mxCell id="168WRq8Tqpi3jC3P_OvF-14" value="Sim" style="text;html=1;strokeColor=none;fillColor=none;align=center;verticalAlign=middle;whiteSpace=wrap;rounded=0;" parent="1" vertex="1">
          <mxGeometry x="380" y="300" width="40" height="20" as="geometry" />
        </mxCell>
      </root>
    </mxGraphModel>
  </diagram>
</mxfile>
